<svg width="70" height="70" viewBox="0 0 70 70" fill="none" xmlns="http://www.w3.org/2000/svg">
<mask id="mask0_824_896" style="mask-type:alpha" maskUnits="userSpaceOnUse" x="0" y="0" width="70" height="70">
<rect width="69.3416" height="69.3416" fill="#D9D9D9"/>
</mask>
<g mask="url(#mask0_824_896)">
<path d="M23.1132 46.2276H57.784V37.5599H50.4165C49.4053 39.3416 48.0088 40.7501 46.2271 41.7854C44.4454 42.8207 42.5193 43.3384 40.4486 43.3384C38.4262 43.3384 36.5241 42.8207 34.7424 41.7854C32.9607 40.7501 31.5402 39.3416 30.4808 37.5599H23.1132V46.2276ZM40.4486 37.5599C42.0859 37.5599 43.4583 36.9941 44.5658 35.8625C45.6733 34.7309 46.2271 33.3705 46.2271 31.7814H57.784V11.5568H23.1132V31.7814H34.6702C34.6702 33.3705 35.236 34.7309 36.3676 35.8625C37.4992 36.9941 38.8596 37.5599 40.4486 37.5599ZM23.1132 52.0061C21.5242 52.0061 20.1638 51.4403 19.0322 50.3086C17.9006 49.177 17.3348 47.8167 17.3348 46.2276V11.5568C17.3348 9.96771 17.9006 8.60736 19.0322 7.47575C20.1638 6.34413 21.5242 5.77832 23.1132 5.77832H57.784C59.3731 5.77832 60.7335 6.34413 61.8651 7.47575C62.9967 8.60736 63.5625 9.96771 63.5625 11.5568V46.2276C63.5625 47.8167 62.9967 49.177 61.8651 50.3086C60.7335 51.4403 59.3731 52.0061 57.784 52.0061H23.1132ZM11.5563 63.563C9.96722 63.563 8.60687 62.9972 7.47526 61.8656C6.34364 60.734 5.77783 59.3736 5.77783 57.7845V17.3353H11.5563V57.7845H52.0056V63.563H11.5563Z" fill="#1C1B1F"/>
</g>
</svg>
