<svg width="89" height="91" viewBox="0 0 89 91" fill="none" xmlns="http://www.w3.org/2000/svg">
<path d="M44.5782 8.16211C44.6637 8.16221 44.6637 8.16221 44.7509 8.16231C49.9681 8.17536 55.0349 9.35656 59.7968 11.5168C59.8616 11.5462 59.9264 11.5756 59.9932 11.6059C60.904 12.0236 61.7778 12.51 62.6476 13.0098C62.6979 13.0384 62.7482 13.0671 62.8 13.0966C64.7228 14.1956 66.5326 15.5356 68.2101 16.9911C68.2575 17.0321 68.3049 17.0731 68.3537 17.1154C68.814 17.5151 69.2674 17.9158 69.6879 18.3596C69.8133 18.4881 69.9439 18.606 70.0788 18.724C70.5584 19.1469 71 19.6096 71.411 20.102C71.5182 20.227 71.627 20.3487 71.7385 20.4697C73.2629 22.122 73.2629 22.122 73.312 23.034C73.2852 23.6074 73.0584 24.1233 72.6601 24.527C72.142 24.9035 71.6108 25.0342 70.9799 24.9283C70.2612 24.7348 69.8056 24.1102 69.3623 23.54C68.7681 22.7903 68.0799 22.1127 67.4148 21.43C67.3573 21.3708 67.2997 21.3116 67.2404 21.2506C66.9026 20.9062 66.5561 20.5783 66.1937 20.2614C66.1176 20.1931 66.0415 20.1247 65.9655 20.0561C65.3688 19.5232 64.7487 19.0311 64.1078 18.5551C64.0616 18.5207 64.0155 18.4863 63.968 18.4508C62.7931 17.5768 61.5701 16.7764 60.2889 16.0754C60.1524 16.0002 60.0173 15.9229 59.8824 15.845C57.6069 14.5481 55.0846 13.6537 52.5656 13.0098C52.4886 12.9901 52.4116 12.9705 52.3323 12.9502C50.4928 12.4889 48.6151 12.2029 46.7249 12.0856C46.6642 12.0816 46.6034 12.0776 46.5408 12.0734C46.1388 12.0474 45.7369 12.0277 45.3343 12.0145C45.2848 12.0128 45.2352 12.0112 45.1842 12.0095C40.3302 11.8728 35.41 13.0116 31.0109 15.0715C30.906 15.1203 30.906 15.1203 30.7991 15.1701C29.6937 15.6877 28.6425 16.2747 27.6038 16.92C27.5239 16.9692 27.5239 16.9692 27.4423 17.0194C26.0989 17.8477 24.8435 18.8068 23.6406 19.8348C23.5867 19.8806 23.5867 19.8806 23.5318 19.9274C22.4919 20.8154 21.4576 21.7557 20.5741 22.8083C20.4235 22.9847 20.2677 23.1556 20.1118 23.3273C19.7469 23.737 19.413 24.1669 19.0831 24.6064C18.9821 24.7402 18.8795 24.8726 18.7766 25.0049C14.7217 30.2626 12.3762 36.8438 11.9158 44.6199C11.9143 44.6693 11.9127 44.7186 11.911 44.7695C11.8865 45.5612 11.8946 46.3451 11.9593 47.1348C12.1041 47.1574 12.249 47.1795 12.3939 47.2015C12.4745 47.2138 12.5552 47.2262 12.6383 47.239C16.1139 47.707 19.6638 47.2426 23.0148 46.2817C23.0175 46.2428 23.0202 46.204 23.023 46.164C23.3939 40.8818 24.1129 35.5391 26.5577 30.7833C26.6365 30.6291 26.7133 30.4741 26.7901 30.3189C28.4031 27.0859 30.9318 23.8096 34.4136 22.6164C36.0358 22.0977 37.7484 22.0838 39.2851 22.8918C40.8077 23.7917 41.7455 25.1881 42.2228 26.9042C43.1477 30.746 41.6605 34.6787 39.7334 37.9395C38.9778 39.1885 38.0819 40.3499 37.1296 41.4473C37.0708 41.5154 37.012 41.5835 36.9515 41.6537C36.2015 42.5058 35.421 43.3623 34.5355 44.0686C34.3514 44.2175 34.1752 44.3729 33.9988 44.5311C33.4904 44.9858 32.9596 45.3954 32.4015 45.784C32.3114 45.8473 32.3114 45.8473 32.2194 45.9118C30.516 47.1047 28.737 48.1454 26.839 48.9832C26.9108 53.6884 27.5729 59.8965 30.9413 63.4153C31.7846 64.236 32.6291 64.4545 33.7563 64.4336C35.1678 64.3731 36.5699 63.4803 37.6163 62.5622C37.68 62.5102 37.7436 62.4582 37.8092 62.4047C38.2784 62.0026 38.6139 61.5506 38.9476 61.0279C39.2264 60.6058 39.5681 60.2525 40.057 60.0991C40.5673 60.0015 41.1253 60.0142 41.5796 60.2872C42.0441 60.6171 42.3079 60.9829 42.4661 61.5357C42.5601 62.4727 42.1727 63.1394 41.6133 63.8563C39.8019 66.1175 37.1403 67.93 34.2593 68.2983C32.2738 68.471 30.4401 67.9733 28.8798 66.677C24.793 63.1526 23.6346 56.899 23.1823 51.7177C23.1456 51.2328 23.1395 50.7491 23.1538 50.2629C23.1128 50.274 23.0718 50.2851 23.0296 50.2965C20.7663 50.8986 18.4676 51.1975 16.1312 51.2582C16.069 51.2599 16.0069 51.2616 15.9429 51.2633C15.1052 51.2823 14.2726 51.2458 13.4368 51.1916C13.3642 51.187 13.3642 51.187 13.2902 51.1822C12.4712 51.1289 12.4712 51.1289 12.307 51.045C12.9644 54.56 14.0094 57.8584 15.5749 61.0692C15.6047 61.1303 15.6344 61.1914 15.6651 61.2544C16.1162 62.1738 16.6319 63.047 17.1741 63.9129C17.2012 63.9563 17.2283 63.9996 17.2562 64.0443C18.091 65.3731 19.0424 66.6669 20.0945 67.8231C20.1716 67.9131 20.2484 68.0035 20.3248 68.0941C21.0361 68.9273 21.7731 69.7537 22.5965 70.4724C22.7576 70.6142 22.9142 70.7604 23.0713 70.9068C25.2567 72.9199 27.7683 74.5048 30.3851 75.8567C30.4413 75.8858 30.4976 75.915 30.5556 75.945C31.5141 76.4372 32.5064 76.8331 33.514 77.2075C33.5878 77.235 33.6617 77.2625 33.7377 77.2908C39.4954 79.4083 45.8333 79.738 58.9067 75.8789C59.8852 75.4046 60.8199 74.8694 61.7437 74.2926C61.8028 74.2561 61.8619 74.2195 61.9228 74.1819C62.7797 73.6505 63.5896 73.0657 64.3859 72.4442C64.431 72.4091 64.476 72.374 64.5225 72.3378C65.6238 71.4763 66.6862 70.5458 67.6538 69.5293C67.7682 69.4093 67.8843 69.291 68.0015 69.1739C68.0515 69.123 68.1015 69.0721 68.1531 69.0197C68.6132 68.5706 69.0541 68.2527 69.705 68.2141C70.2353 68.2428 70.7122 68.4764 71.0978 68.8437C71.5 69.3041 71.5746 69.7773 71.5661 70.3761C71.509 71.0549 71.0926 71.4791 70.6437 71.9465C70.6057 71.9863 70.5678 72.0261 70.5287 72.0671C70.1159 72.4988 69.7024 72.9285 69.2514 73.319C69.0786 73.4705 68.9121 73.6284 68.7446 73.7861C68.3688 74.1357 67.9819 74.4671 67.5843 74.7903C67.5414 74.8254 67.4986 74.8606 67.4544 74.8968C61.8828 79.455 55.1391 82.1719 44.8041 83.0549C44.6896 83.055 44.6896 83.055 44.5728 83.0551C38.3697 83.0489 32.4514 81.3884 24.4054 76.7809C24.303 76.7108 24.2005 76.6407 24.0979 76.5707C23.4237 76.1078 22.7775 75.6239 22.1511 75.0956C21.9988 74.9679 21.844 74.8437 21.6893 74.7192C21.413 74.4928 21.1418 74.2608 20.8723 74.026C20.8362 73.9947 20.8 73.9633 20.7627 73.931C20.0338 73.2919 19.3412 72.6115 18.6625 71.9174C18.5468 71.7993 18.4306 71.6818 18.3144 71.5643C17.9073 71.1502 17.5256 70.7303 17.1697 70.2689C17.0328 70.0952 16.8886 69.9321 16.7396 69.7693C16.338 69.3174 15.9828 68.8303 15.6252 68.3419C15.5076 68.1816 15.389 68.0222 15.2702 67.8628C14.2431 66.4739 13.3617 64.9959 12.5493 63.4671C12.4599 63.2992 12.3694 63.1322 12.2782 62.9654C10.178 59.0781 8.97284 54.6452 8.41321 50.2629C8.34267 50.2572 8.27213 50.2514 8.19946 50.2454C7.73054 50.1849 7.27945 50.0384 6.82703 49.903C6.75541 49.8817 6.75541 49.8817 6.68234 49.86C3.75959 48.986 3.75959 48.986 3.12232 47.8527C2.91902 47.3821 2.91262 46.8277 3.06365 46.3395C3.27733 45.8422 3.62954 45.4874 4.10961 45.2644C4.72738 45.0339 5.2376 45.1212 5.82752 45.3936C5.90066 45.4286 5.97379 45.4636 6.04915 45.4997C6.73391 45.8151 7.41532 46.0657 8.13509 46.2817C8.13436 46.2419 8.13363 46.2021 8.13288 46.1612C8.03724 40.002 9.47147 34.0021 12.1679 28.5083C12.2023 28.438 12.2368 28.3678 12.2723 28.2954C12.9182 26.9871 13.6483 25.733 14.4624 24.527C14.4939 24.4801 14.5254 24.4331 14.5579 24.3847C15.4768 23.0192 16.4839 21.7336 17.5753 20.5085C17.6601 20.4123 17.7444 20.3156 17.8264 20.2169C18.1857 19.7867 18.5743 19.3877 18.966 18.9888C19.0817 18.8708 19.197 18.7525 19.3124 18.6341C19.7001 18.2374 20.0918 17.8501 20.5117 17.4887C20.5843 17.4247 20.6569 17.3606 20.7295 17.2965C21.2313 16.8598 21.7407 16.4355 22.2627 16.0242C22.3464 15.9582 22.43 15.892 22.5134 15.8257C27.8387 11.5968 34.3925 9.00414 44.5782 8.16211ZM32.4697 28.4433C32.3492 28.58 32.2356 28.7199 32.1234 28.8637C32.0708 28.9306 32.0183 28.9975 31.9642 29.0664C28.5323 33.5007 27.2946 39.2005 26.839 44.7176C28.4411 44.1979 29.9065 42.9876 31.2195 41.945C31.2842 41.894 31.3489 41.8431 31.4156 41.7906C31.7927 41.4883 32.1478 41.1653 32.5001 40.8333C32.6489 40.694 32.7998 40.559 32.9534 40.4253C33.539 39.9027 34.0697 39.3365 34.5526 38.7141C34.6818 38.5504 34.8164 38.3973 34.9568 38.2437C37.0861 35.8111 38.9528 32.1963 38.7984 28.8637C38.719 27.9157 38.4814 27.0154 37.7554 26.3754C36.037 25.1063 33.6177 27.2308 32.4697 28.4433Z" fill="white"/>
<path d="M62.6042 22.9541C62.7129 23.0501 62.8201 23.1479 62.9258 23.2474C62.9842 23.3006 63.0426 23.3539 63.1028 23.4087C64.2558 24.5144 64.8665 26.1704 64.9565 27.7674C64.9633 28.0412 64.965 28.3144 64.9639 28.5883C64.9637 28.6368 64.9636 28.6852 64.9634 28.7352C64.9596 29.5076 64.9196 30.2465 64.7336 30.9966C64.714 31.0773 64.714 31.0773 64.6939 31.1596C63.8151 34.6604 61.7034 37.8518 59.3797 40.5232C59.3477 40.56 59.3157 40.5968 59.2827 40.6348C58.838 41.1434 58.3728 41.6305 57.9021 42.1139C57.8504 42.1672 57.7986 42.2204 57.7452 42.2753C57.4206 42.6063 57.0868 42.9213 56.7375 43.2247C56.6936 43.263 56.6497 43.3013 56.6044 43.3407C53.9978 45.5955 51.0302 47.4472 47.5594 47.7747C47.5219 50.8742 47.5219 50.8742 47.7679 53.9599C47.7738 54.0067 47.7797 54.0536 47.7858 54.1018C48.2219 57.5316 48.8846 61.6719 51.7312 63.913C52.7092 64.5878 53.666 64.7876 54.8292 64.5798C56.202 64.186 57.355 63.3004 58.4062 62.3489C58.5056 62.2593 58.5056 62.2593 58.6069 62.1679C59.0346 61.7741 59.4455 61.3644 59.8533 60.9493C59.9024 60.8995 59.9514 60.8497 60.002 60.7983C60.2779 60.5154 60.5412 60.2253 60.7964 59.9228C60.9618 59.7278 61.133 59.5387 61.3048 59.3497C61.3576 59.2914 61.3576 59.2914 61.4115 59.2319C61.5592 59.0687 61.7072 58.9056 61.8552 58.7425C62.2206 58.3396 62.5853 57.9367 62.9369 57.521C63.1371 57.2884 63.3432 57.0614 63.5484 56.8335C63.7245 56.6376 63.8985 56.4405 64.0687 56.2393C64.3179 55.9453 64.5767 55.6605 64.8361 55.3759C65.0236 55.1696 65.2075 54.9607 65.3881 54.748C65.6353 54.4578 65.8915 54.1772 66.1503 53.8977C66.4237 53.6021 66.694 53.3048 66.9575 52.9998C67.3759 52.5231 67.8191 52.0715 68.262 51.6186C68.4096 51.4676 68.5566 51.316 68.7036 51.1643C69.2132 50.6411 69.7257 50.1483 70.2961 49.6943C70.3834 49.6207 70.4705 49.5469 70.5574 49.4727C73.258 47.1984 76.4084 46.2035 79.8914 46.2818C79.9476 46.2827 80.0038 46.2836 80.0617 46.2845C80.2454 46.2879 80.4291 46.2935 80.6128 46.2995C80.6698 46.3005 80.7268 46.3015 80.7856 46.3026C81.3677 46.3268 81.8588 46.5392 82.2899 46.9422C82.6444 47.3545 82.766 47.8468 82.7566 48.384C82.7083 48.9633 82.4682 49.3823 82.0468 49.7654C81.5766 50.0801 81.1676 50.1718 80.6128 50.1636C80.5442 50.1642 80.4756 50.1647 80.4049 50.1653C80.1874 50.1669 79.9699 50.1663 79.7523 50.1653C77.3526 50.1622 75.2095 50.6312 73.2859 52.1825C73.2251 52.2299 73.1642 52.2773 73.1015 52.3261C72.702 52.643 72.3299 52.9888 71.9599 53.3406C71.7812 53.5097 71.5999 53.6752 71.4173 53.8399C71.1233 54.1099 70.8411 54.3903 70.5612 54.6753C70.5215 54.7155 70.4819 54.7557 70.441 54.7971C70.1916 55.0531 69.9569 55.3186 69.7257 55.5917C69.5122 55.8403 69.2889 56.0793 69.0662 56.3193C68.6249 56.7969 68.1865 57.2769 67.7519 57.7609C67.6513 57.8729 67.5505 57.9848 67.4496 58.0967C67.1365 58.4444 66.8259 58.7938 66.5229 59.1508C66.2775 59.4379 66.0264 59.7198 65.7765 60.0029C65.7263 60.06 65.6762 60.1172 65.6244 60.1761C65.3085 60.5361 64.9901 60.8936 64.67 61.2497C64.4698 61.4728 64.2708 61.697 64.073 61.9224C63.9688 62.0409 63.8645 62.1594 63.7601 62.2779C63.7069 62.3384 63.6537 62.3989 63.5989 62.4612C63.1096 63.0127 62.6033 63.545 62.0884 64.0714C61.9521 64.2109 61.8164 64.351 61.6807 64.4911C61.19 64.995 60.6938 65.4662 60.1445 65.9036C60.0699 65.9661 59.9953 66.0288 59.921 66.0916C57.943 67.702 55.5634 68.7585 53.0045 68.4852C51.4562 68.2786 50.1212 67.5869 48.95 66.5435C48.913 66.5111 48.876 66.4788 48.8379 66.4454C48.3324 66.001 47.8934 65.5235 47.4898 64.9794C47.4366 64.9108 47.3833 64.8421 47.3285 64.7714C46.3578 63.4854 45.7465 61.9646 45.2648 60.4294C45.2432 60.3618 45.2215 60.2942 45.1992 60.2245C44.66 58.5217 44.3391 56.7561 44.0958 54.9863C44.0889 54.9368 44.082 54.8873 44.0749 54.8363C43.8446 53.1629 43.7783 51.494 43.7829 49.8053C43.7831 49.7075 43.7832 49.6097 43.7833 49.5118C43.786 48.0452 43.8288 46.6002 44.0133 45.1443C44.025 45.0457 44.0367 44.9471 44.0483 44.8485C44.8313 38.2524 47.1057 31.2917 51.5813 26.3289C51.6799 26.2192 51.7771 26.1082 51.8725 25.9956C53.316 24.2993 55.2549 22.7574 57.3633 22.0388C57.4225 22.0176 57.4817 21.9965 57.5428 21.9746C59.2551 21.466 61.1993 21.8436 62.6042 22.9541ZM54.2344 28.9349C54.1691 29.0133 54.1038 29.0917 54.0385 29.1701C53.4149 29.9269 52.8758 30.7307 52.357 31.5654C52.3216 31.6221 52.2862 31.6789 52.2498 31.7374C51.2409 33.3708 50.4105 35.1031 49.7148 36.8974C49.6916 36.9565 49.6683 37.0155 49.6444 37.0764C48.886 39.0164 47.9109 41.7437 47.9765 43.8646C49.7401 43.4852 51.2524 42.7544 52.7047 41.6607C52.7442 41.631 52.7838 41.6013 52.8246 41.5707C54.1531 40.5671 55.402 39.4161 56.497 38.1518C56.5663 38.072 56.6359 37.9925 56.7058 37.9132C58.6888 35.6656 60.6038 32.8006 61.1875 29.788C61.2007 29.7222 61.214 29.6564 61.2277 29.5886C61.3709 28.4796 61.3247 27.2597 60.7008 26.3044C60.3305 25.8739 59.9392 25.636 59.384 25.5688C57.4399 25.4756 55.383 27.4963 54.2344 28.9349Z" fill="white"/>
<path d="M73.3859 33.4093C73.5625 33.6476 73.5181 33.9063 73.4946 34.1958C73.4497 34.4311 73.3871 34.6591 73.3208 34.889C73.1673 35.3865 73.1673 35.3865 73.1469 35.902C73.1813 35.9372 73.1813 35.9372 73.2165 35.9731C73.454 35.9834 73.454 35.9834 73.7032 35.902C74.0302 35.4387 74.1145 34.9068 74.2332 34.3574C74.3312 33.9382 74.4057 33.6786 74.7461 33.4138C74.9079 33.331 75.0136 33.3285 75.1938 33.3249C75.2482 33.3231 75.3026 33.3212 75.3586 33.3193C75.511 33.3427 75.511 33.3427 75.6351 33.4193C75.7974 33.6818 75.7367 33.9689 75.678 34.2597C75.6172 34.5134 75.5524 34.7656 75.486 35.0178C75.4617 35.1115 75.4374 35.2053 75.4132 35.299C75.3624 35.4949 75.3111 35.6906 75.2596 35.8863C75.1938 36.1358 75.1293 36.3857 75.0651 36.6356C75.0152 36.8291 74.9647 37.0224 74.914 37.2157C74.8784 37.3521 74.8433 37.4887 74.8082 37.6252C74.6289 38.3 74.4359 38.8498 73.8422 39.2434C73.2214 39.5812 72.5459 39.6185 71.859 39.4967C71.498 39.3836 71.2403 39.1506 71.061 38.8169C71.0274 38.5882 71.0244 38.4674 71.061 38.2481C71.0712 38.1838 71.0814 38.1195 71.092 38.0532C71.1773 37.6456 71.2846 37.3591 71.6191 37.1079C71.8672 36.9843 72.0402 36.9978 72.3126 37.0395C72.4672 37.1541 72.5151 37.2151 72.5464 37.4092C72.5405 37.7052 72.5268 37.9789 72.4516 38.2659C72.3874 38.512 72.3697 38.7065 72.3821 38.9591C72.7253 38.9358 72.7253 38.9358 73.0168 38.7665C73.1639 38.5823 73.2104 38.4482 73.2653 38.2181C73.2833 38.1453 73.3012 38.0724 73.3197 37.9974C73.346 37.884 73.346 37.884 73.3729 37.7682C73.3915 37.6915 73.4102 37.6148 73.4294 37.5358C73.4752 37.3469 73.5201 37.1578 73.5641 36.9684C73.5003 36.9717 73.4365 36.975 73.3707 36.9784C72.4433 37.0063 72.4433 37.0063 72.0344 36.6841C71.8186 36.4747 71.7214 36.2985 71.6844 35.9956C71.6899 35.6088 71.814 35.2331 71.9127 34.8623C71.9345 34.776 71.9563 34.6896 71.9787 34.6007C72.214 33.6944 72.214 33.6944 72.5385 33.4271C72.8349 33.2962 73.0842 33.2906 73.3859 33.4093Z" fill="#FFE7A0"/>
<path d="M71.2001 33.5566C71.2646 33.5844 71.3292 33.6123 71.3956 33.641C71.6188 33.83 71.7559 34.0503 71.8259 34.3386C71.7868 34.8516 71.6582 35.3377 71.5312 35.8343C71.5088 35.9225 71.4864 36.0106 71.4633 36.1014C71.4161 36.2871 71.3685 36.4726 71.3208 36.6582C71.2599 36.8949 71.2001 37.1319 71.1406 37.369C71.0832 37.5967 71.0246 37.8241 70.9662 38.0516C70.9451 38.1362 70.9239 38.2209 70.9021 38.3081C70.6707 39.1971 70.6707 39.1971 70.3136 39.484C70.071 39.5529 69.8496 39.5762 69.6009 39.5284C69.4184 39.3996 69.4184 39.3996 69.3227 39.173C69.3683 38.6102 69.5426 38.0528 69.6883 37.5103C69.7323 37.3438 69.7762 37.1772 69.8201 37.0106C69.8888 36.7512 69.9577 36.4919 70.027 36.2328C70.0943 35.9804 70.1608 35.7279 70.2272 35.4753C70.2585 35.3597 70.2585 35.3597 70.2904 35.2418C70.3973 34.8326 70.4591 34.4779 70.4352 34.0542C70.1835 33.9378 70.0672 33.895 69.8008 33.9876C69.4357 34.2392 69.2921 34.5084 69.1871 34.9397C69.176 34.9843 69.1648 35.0288 69.1534 35.0747C69.1295 35.1708 69.106 35.267 69.0829 35.3633C69.0463 35.516 69.0085 35.6683 68.9705 35.8206C68.8899 36.1439 68.8107 36.4676 68.7317 36.7913C68.6402 37.1667 68.548 37.5418 68.4544 37.9166C68.4173 38.0663 68.3813 38.2162 68.3453 38.3662C68.3224 38.4584 68.2994 38.5507 68.2764 38.643C68.2568 38.7232 68.2373 38.8034 68.2172 38.8861C68.1183 39.1652 67.989 39.3927 67.7235 39.5284C67.6094 39.5389 67.4948 39.5442 67.3802 39.5462C67.3194 39.548 67.2585 39.5499 67.1958 39.5518C66.992 39.5234 66.9431 39.4801 66.8196 39.3152C66.7717 38.7799 66.9766 38.1978 67.1094 37.6864C67.1425 37.5576 67.1425 37.5576 67.1763 37.4263C67.2229 37.2457 67.2699 37.0652 67.3171 36.8848C67.3651 36.7011 67.4124 36.5172 67.4589 36.3332C67.5266 36.0656 67.596 35.7984 67.6657 35.5314C67.6861 35.4498 67.7066 35.3683 67.7276 35.2842C67.9144 34.5836 68.1792 34.0271 68.8029 33.6432C69.5664 33.259 70.4182 33.2045 71.2001 33.5566Z" fill="#FFE7A0"/>
<path d="M80.8649 33.3433C81.0127 33.4455 81.0127 33.4455 81.0735 33.6277C81.0409 34.1693 80.9108 34.6719 80.7715 35.194C80.7486 35.2815 80.7257 35.369 80.7021 35.4592C80.617 35.7845 80.5311 36.1096 80.4452 36.4347C80.3608 36.7542 80.2771 37.0738 80.1935 37.3934C80.1713 37.4768 80.149 37.5601 80.1261 37.646C80.0112 38.0857 79.9265 38.5057 79.8915 38.9597C80.1456 38.9899 80.2735 38.9828 80.4912 38.8398C80.9322 38.3288 81.0155 37.377 81.1751 36.7314C81.2197 36.5546 81.2644 36.3777 81.3092 36.201C81.3788 35.9261 81.448 35.6512 81.5156 35.3758C81.5818 35.1075 81.6498 34.8397 81.7183 34.5719C81.7381 34.4896 81.7579 34.4072 81.7782 34.3224C81.8981 33.8615 81.9882 33.5948 82.3946 33.3433C82.5649 33.3036 82.5649 33.3036 82.7205 33.3122C82.7724 33.3138 82.8243 33.3153 82.8778 33.3169C83.0204 33.3433 83.0204 33.3433 83.229 33.4855C83.3246 33.7717 83.2824 33.9824 83.2087 34.2704C83.1873 34.3554 83.1659 34.4403 83.1439 34.5279C83.1199 34.62 83.0958 34.7122 83.0717 34.8044C83.0473 34.8997 83.0229 34.9951 82.9986 35.0904C82.9474 35.2902 82.8958 35.4899 82.8437 35.6894C82.7774 35.9437 82.7123 36.1983 82.6476 36.4531C82.5974 36.6502 82.5466 36.8471 82.4956 37.0439C82.4597 37.1829 82.4243 37.3221 82.3889 37.4612C82.1943 38.2025 81.9979 38.8032 81.3516 39.2441C80.7536 39.5763 80.0444 39.6474 79.3814 39.4899C79.0852 39.3702 78.7995 39.1785 78.6295 38.8997C78.44 38.4085 78.7023 37.739 78.8346 37.2546C78.8539 37.1822 78.8733 37.1098 78.8931 37.0353C78.9545 36.8057 79.0167 36.5764 79.0788 36.347C79.1197 36.1943 79.1606 36.0416 79.2014 35.8888C79.2796 35.5964 79.3589 35.3044 79.4389 35.0125C79.5032 34.7769 79.5644 34.5413 79.6202 34.3035C79.6419 34.215 79.6635 34.1265 79.6859 34.0354C79.7026 33.9619 79.7194 33.8883 79.7367 33.8126C79.954 33.3413 80.4059 33.2561 80.8649 33.3433Z" fill="#FFE7A0"/>
<path d="M78.9873 33.6275C79.1994 33.8496 79.3238 34.0198 79.3567 34.3295C79.3486 34.7657 79.218 35.257 78.9601 35.6073C78.7373 35.813 78.5202 35.9025 78.2225 35.9025C78.0269 35.8314 78.0269 35.8314 77.8748 35.6892C77.7775 35.3509 77.8154 35.1088 77.9109 34.7744C77.9686 34.5125 77.9552 34.2498 77.9443 33.9829C77.7448 33.8969 77.7448 33.8969 77.5663 33.9385C77.1097 34.2345 77.0126 35.0076 76.8851 35.5115C76.8654 35.5879 76.8457 35.6644 76.8255 35.7432C76.7843 35.904 76.7434 36.0648 76.7028 36.2257C76.6407 36.4707 76.5773 36.7154 76.5138 36.96C76.4738 37.117 76.4338 37.274 76.394 37.431C76.3751 37.5034 76.3562 37.5759 76.3367 37.6505C76.2307 38.0761 76.1869 38.4493 76.2061 38.8884C76.3618 38.956 76.3618 38.956 76.5537 38.9595C76.8859 38.6915 76.9773 38.437 77.0752 38.0353C77.1742 37.6289 77.2698 37.3903 77.5967 37.1111C77.8092 37.0024 77.9881 37.0234 78.2225 37.04C78.3919 37.1066 78.3919 37.1066 78.5006 37.2532C78.6018 37.7492 78.4334 38.2324 78.2225 38.6751C77.8704 39.1351 77.3803 39.396 76.8318 39.5282C76.2945 39.5727 75.773 39.608 75.3021 39.315C75.2376 39.2768 75.1731 39.2387 75.1066 39.1994C74.8753 38.9426 74.8236 38.7376 74.8154 38.3907C74.849 38.2187 74.8889 38.0479 74.933 37.8784C74.959 37.7767 74.985 37.675 75.011 37.5733C75.0246 37.5207 75.0383 37.4681 75.0523 37.4139C75.1065 37.2029 75.1579 36.9912 75.2092 36.7794C75.261 36.5659 75.3138 36.3527 75.3666 36.1395C75.3934 36.031 75.4199 35.9224 75.4463 35.8139C75.8606 34.1078 75.8606 34.1078 76.4842 33.6986C77.2707 33.2682 78.1907 33.1486 78.9873 33.6275Z" fill="#FFE7A0"/>
<path d="M41.232 34.5518C41.2993 34.7347 41.3069 34.8196 41.2461 35.0079C41.2161 35.0713 41.1861 35.1348 41.1552 35.2002C41.1216 35.2718 41.088 35.3435 41.0534 35.4173C41.0163 35.4938 40.9791 35.5704 40.9409 35.6493C40.903 35.7284 40.8651 35.8076 40.826 35.8892C39.8402 37.9234 38.6021 39.751 37.1297 41.4479C37.0709 41.5159 37.0121 41.584 36.9515 41.6542C36.2015 42.5064 35.421 43.3628 34.5356 44.0692C34.3515 44.2181 34.1753 44.3734 33.9988 44.5316C33.4905 44.9863 32.9597 45.396 32.4016 45.7846C32.3415 45.8267 32.2814 45.8689 32.2195 45.9124C30.6975 46.9782 29.1285 47.8844 27.4648 48.6994C27.4143 48.7245 27.3637 48.7496 27.3116 48.7755C27.0034 48.9213 27.0034 48.9213 26.7695 48.8416C26.8271 48.8148 26.8846 48.7879 26.9439 48.7602C28.6763 47.9435 30.3471 47.043 31.9148 45.9268C31.9755 45.8838 31.9755 45.8838 32.0374 45.84C33.8825 44.5286 35.6798 42.9972 37.1297 41.2346C37.1841 41.1711 37.2385 41.1076 37.2946 41.0421C38.9103 39.1454 40.3458 36.9059 41.232 34.5518Z" fill="white"/>
<path d="M37.8919 26.3332C38.4836 26.8746 38.7782 27.7199 38.8678 28.5085C38.8894 29.0297 38.8812 29.5512 38.8678 30.0725C38.8448 30.0725 38.8219 30.0725 38.7982 30.0725C38.7955 30.0214 38.7927 29.9702 38.7899 29.9175C38.7298 28.0733 38.7298 28.0733 37.8354 26.5312C37.4001 26.1631 36.9692 26.0683 36.4125 26.1002C34.5762 26.33 33.0496 27.753 31.9469 29.1787C30.36 31.2586 29.0811 33.79 28.4169 36.3387C28.3686 36.471 28.3686 36.471 28.2295 36.5421C28.3235 36.064 28.4555 35.6173 28.6206 35.1602C28.6451 35.0921 28.6695 35.024 28.6948 34.9538C29.0747 33.9115 29.533 32.9061 30.0373 31.921C30.0633 31.87 30.0892 31.8191 30.116 31.7666C30.693 30.6444 31.379 29.6088 32.1928 28.6507C32.2827 28.5444 32.2827 28.5444 32.3745 28.436C33.5599 27.0609 36.0457 24.9859 37.8919 26.3332Z" fill="white"/>
<path d="M60.2283 25.7511C60.761 26.1261 61.0771 26.6728 61.2568 27.2997C61.2339 27.37 61.2109 27.4404 61.1873 27.5129C61.167 27.458 61.1468 27.403 61.1259 27.3463C60.8511 26.6324 60.5674 26.0738 59.8662 25.7356C59.1445 25.4968 58.4362 25.6897 57.7803 26.02C56.4719 26.7071 55.2338 27.7737 54.3037 28.9348C54.2384 29.0133 54.173 29.0918 54.1076 29.1703C53.3109 30.1378 52.6376 31.1883 52.0092 32.2762C51.9633 32.2528 51.9174 32.2293 51.8701 32.2051C53.3473 29.5849 55.5451 26.5388 58.4799 25.5534C59.1072 25.3816 59.6545 25.4272 60.2283 25.7511Z" fill="white"/>
<path d="M58.6845 41.0918C58.6845 41.3051 58.6845 41.3051 58.5656 41.4519C58.5109 41.5072 58.4562 41.5625 58.3998 41.6194C58.3396 41.6807 58.2794 41.7419 58.2173 41.805C58.1216 41.9006 58.1216 41.9006 58.0239 41.9982C57.9623 42.0609 57.9006 42.1236 57.8371 42.1882C57.4815 42.5475 57.1191 42.8943 56.7376 43.2246C56.6938 43.2627 56.6501 43.3008 56.605 43.3401C54.3752 45.2696 51.2031 47.7192 48.1157 47.6324C48.1157 47.609 48.1157 47.5855 48.1157 47.5613C48.1607 47.551 48.2057 47.5407 48.2521 47.5301C52.4786 46.5519 55.6869 44.2216 58.6845 41.0918Z" fill="white"/>
<path d="M42.2748 62.4912C42.3443 62.7045 42.3443 62.7045 42.277 62.8583C41.8528 63.5553 41.3615 64.1661 40.8146 64.7662C40.772 64.8137 40.7293 64.8612 40.6854 64.9101C39.4033 66.2826 37.0821 67.9641 35.1718 68.1198C35.0594 68.1207 34.9471 68.1151 34.835 68.1076C35.041 67.9901 35.2505 67.9193 35.4765 67.8519C36.1225 67.6591 36.7315 67.4092 37.3381 67.1123C37.3814 67.0912 37.4246 67.07 37.4692 67.0482C38.6067 66.4823 39.6015 65.7019 40.5365 64.8373C40.5832 64.7947 40.6299 64.7521 40.678 64.7082C41.3318 64.0776 41.8521 63.2967 42.2748 62.4912Z" fill="white"/>
<path d="M26.978 17.1338C27.0469 17.169 27.0469 17.169 27.1171 17.2049C27.0481 17.2531 26.9791 17.3013 26.908 17.351C25.366 18.4299 23.8886 19.5572 22.5169 20.8576C22.3341 21.0301 22.1491 21.1995 21.9631 21.3683C21.3564 21.9259 20.7799 22.5154 20.2813 23.1768C20.2232 23.2471 20.2232 23.2471 20.164 23.3189C20.1181 23.3189 20.0722 23.3189 20.0249 23.3189C20.1206 23.1013 20.2313 22.9452 20.3916 22.7724C20.4371 22.7231 20.4825 22.6739 20.5294 22.6231C20.578 22.5712 20.6267 22.5193 20.6768 22.4658C20.7266 22.4122 20.7765 22.3585 20.8279 22.3033C21.9529 21.0974 21.9529 21.0974 22.5302 20.5954C22.6864 20.4582 22.8372 20.3156 22.9887 20.173C23.3779 19.8144 23.787 19.4858 24.2019 19.1592C24.3384 19.0513 24.4741 18.9423 24.6096 18.8331C25.3717 18.2236 26.1673 17.6732 26.978 17.1338Z" fill="white"/>
<path d="M63.6209 33.7695C63.6904 33.9828 63.6904 33.9828 63.6414 34.1215C63.6143 34.1739 63.5872 34.2263 63.5592 34.2802C63.5288 34.3396 63.4984 34.3989 63.4671 34.4601C63.4332 34.524 63.3994 34.5879 63.3645 34.6538C63.3298 34.7202 63.295 34.7867 63.2592 34.8552C62.2022 36.8576 60.9415 38.6979 59.4765 40.4097C59.3037 40.6123 59.1331 40.8168 58.9623 41.0211C58.9164 40.9976 58.8705 40.9742 58.8232 40.95C58.8487 40.9205 58.8742 40.891 58.9004 40.8606C58.9839 40.7634 59.0672 40.666 59.1503 40.5684C59.2634 40.4358 59.3772 40.3036 59.4914 40.1719C60.0972 39.4668 60.6466 38.722 61.1873 37.9641C61.2337 37.8993 61.2337 37.8993 61.281 37.8333C61.746 37.1804 62.1454 36.4878 62.5461 35.7926C62.615 35.6739 62.6846 35.5556 62.7548 35.4377C62.9773 35.0641 63.1813 34.687 63.3688 34.2938C63.3935 34.2428 63.4181 34.1918 63.4435 34.1392C63.5029 34.0161 63.562 33.8928 63.6209 33.7695Z" fill="white"/>
<path d="M61.1182 64.8379C61.1182 65.0512 61.1182 65.0512 61.0076 65.1795C59.2583 66.7568 57.2228 68.1571 54.8604 68.4637C54.9299 68.3215 54.9299 68.3215 55.0478 68.2806C55.0986 68.2696 55.1494 68.2586 55.2018 68.2473C55.287 68.2278 55.287 68.2278 55.374 68.2079C55.4354 68.1941 55.4968 68.1802 55.56 68.166C56.2266 68.0057 56.8182 67.7724 57.433 67.4684C57.5024 67.4365 57.5718 67.4046 57.6432 67.3717C58.5709 66.93 59.4367 66.2961 60.2143 65.6199C60.2951 65.5504 60.3759 65.4809 60.4568 65.4114C60.6779 65.221 60.8982 65.0297 61.1182 64.8379Z" fill="white"/>
<path d="M72.3123 52.752C72.3582 52.752 72.4041 52.752 72.4514 52.752C72.4514 52.8941 72.4514 52.8941 72.3615 52.9869C72.318 53.0237 72.2745 53.0606 72.2297 53.0985C71.6324 53.619 71.0607 54.1677 70.5045 54.7337C70.4495 54.7895 70.4495 54.7895 70.3934 54.8463C70.1606 55.0852 69.9475 55.3339 69.7396 55.5957C69.6938 55.5722 69.6479 55.5488 69.6006 55.5246C70.064 54.9911 70.5462 54.479 71.039 53.9739C71.0943 53.917 71.1496 53.8602 71.2065 53.8016C71.5076 53.4946 71.8144 53.1991 72.1371 52.9159C72.1971 52.8631 72.2563 52.8092 72.3123 52.752Z" fill="white"/>
<path d="M29.8291 62.207C30.0722 62.2899 30.1114 62.3556 30.2593 62.5625C30.7303 63.1972 31.2049 63.7635 31.915 64.1266C31.915 64.1735 31.915 64.2204 31.915 64.2687C31.0211 63.9483 30.3366 63.0571 29.8291 62.2781C29.8291 62.2547 29.8291 62.2312 29.8291 62.207Z" fill="white"/>
<path d="M65.7768 59.79C65.7768 60.0689 65.6959 60.1179 65.5117 60.3188C65.4549 60.3814 65.3982 60.444 65.3397 60.5085C65.2775 60.5764 65.2152 60.6443 65.151 60.7143C65.0505 60.8253 64.9504 60.9366 64.8504 61.0481C64.7556 61.1536 64.6605 61.2589 64.5654 61.3641C64.3839 61.5699 64.2106 61.78 64.0385 61.9939C63.9926 61.9705 63.9467 61.947 63.8994 61.9229C64.2362 61.5386 64.5746 61.1562 64.9163 60.7765C65.2081 60.452 65.4953 60.1239 65.7768 59.79Z" fill="white"/>
<path d="M73.1471 23.3184C73.17 23.3184 73.193 23.3184 73.2166 23.3184C73.1972 23.7849 73.035 24.1087 72.7299 24.4559C72.4351 24.6978 72.136 24.9067 71.7478 24.9091C71.6818 24.9003 71.6158 24.8915 71.5479 24.8824C71.5479 24.859 71.5479 24.8355 71.5479 24.8113C71.5916 24.8017 71.6353 24.7921 71.6804 24.7822C72.2051 24.6472 72.5979 24.4259 72.8931 23.949C72.9969 23.7424 73.0752 23.5388 73.1471 23.3184Z" fill="white"/>
<path d="M69.0444 17.8447C69.2639 17.9434 69.4059 18.0583 69.5703 18.2357C69.7172 18.3936 69.8382 18.5043 70.0179 18.6268C70.0179 18.6737 70.0179 18.7206 70.0179 18.7689C69.7481 18.6562 69.5775 18.4775 69.3747 18.2668C69.3127 18.203 69.2507 18.1391 69.1868 18.0733C69.0444 17.9158 69.0444 17.9158 69.0444 17.8447Z" fill="white"/>
</svg>
