<svg width="442" height="305" viewBox="0 0 442 305" fill="none" xmlns="http://www.w3.org/2000/svg">
<g filter="url(#filter0_g_858_974)">
<path d="M402.75 19.0219C406.752 19.0861 409.839 21.5231 411.47 23.0042C413.52 24.8652 415.478 27.2939 417.259 29.8948C420.849 35.1393 424.374 42.0545 426.993 49.2226C429.586 56.3195 431.507 64.251 431.396 71.4297C431.287 78.4885 429.086 86.7211 421.283 91.0469C419.138 92.2362 417.919 93.9401 417.256 96.9013C416.511 100.23 416.601 104.703 417.289 110.581C417.625 113.449 418.076 116.469 418.568 119.694C419.053 122.879 419.576 126.265 420.017 129.684C420.896 136.496 421.509 143.864 420.847 151.106C418.667 174.94 414.938 204.395 411.268 229.75C410.835 256.431 407.645 271.679 404.586 280.3C401.287 289.598 392.513 293.177 384.947 293.422C358.251 294.288 274.853 296.215 188.806 290.143C109.815 291.905 84.0452 287.871 61.4405 284.291C56.994 283.586 50.3023 283.241 42.3528 283.058C20.5579 282.555 6.57904 261.244 11.4623 241.126C18.0463 214.002 21.729 182.685 19.411 155.335C18.1402 140.341 16.9035 125.776 16.6036 112.911C16.3066 100.169 16.8951 88.3351 19.6456 79.0237C25.2364 60.0967 22.4322 42.0725 20.379 29.2455C19.7086 25.0572 20.7996 21.2014 23.2419 18.1619C25.487 15.3678 28.519 13.6866 31.2299 12.6529C36.6178 10.5984 43.0755 10.2127 48.0659 10.6744C70.2061 12.7227 111.048 13.5163 147.517 14.5511C165.63 15.065 182.632 15.6389 195.444 16.4658C201.828 16.8779 207.338 17.363 211.485 17.9607C213.538 18.2565 215.465 18.6084 217.077 19.0548C217.878 19.2768 218.785 19.5719 219.666 19.9796C220.137 20.1977 220.894 20.5787 221.694 21.1976C221.77 21.217 221.857 21.2396 221.956 21.2624C223.043 21.5137 224.758 21.7774 227.174 22.0171C231.959 22.4919 238.661 22.7942 246.796 22.947C263.019 23.2518 284.318 22.9531 306.032 22.403C327.723 21.8535 349.733 21.0557 367.349 20.3721C384.875 19.692 398.224 19.1168 402.36 19.0229L402.75 19.0219Z" stroke="white" stroke-width="15"/>
</g>
<defs>
<filter id="filter0_g_858_974" x="0" y="0" width="441.901" height="304.91" filterUnits="userSpaceOnUse" color-interpolation-filters="sRGB">
<feFlood flood-opacity="0" result="BackgroundImageFix"/>
<feBlend mode="normal" in="SourceGraphic" in2="BackgroundImageFix" result="shape"/>
<feTurbulence type="fractalNoise" baseFrequency="0.20000000298023224 0.20000000298023224" numOctaves="3" seed="2441" />
<feDisplacementMap in="shape" scale="6" xChannelSelector="R" yChannelSelector="G" result="displacedImage" width="100%" height="100%" />
<feMerge result="effect1_texture_858_974">
<feMergeNode in="displacedImage"/>
</feMerge>
</filter>
</defs>
</svg>
