<svg width="267" height="121" viewBox="0 0 267 121" fill="none" xmlns="http://www.w3.org/2000/svg">
<path d="M48.4207 43.3751C47.3438 44.6657 46.267 45.9563 35.2245 58.3954C24.1821 70.8344 3.20672 94.3827 1.22318 100.237C-2.65346 111.678 45.2461 71.5803 62.8279 55.4893C75.4481 43.9391 85.3857 33.4439 95.1104 26.2829C104.262 19.5442 71.2705 56.1674 57.9603 71.3246C54.0125 75.8201 73.6814 58.0712 94.9222 36.1674C108.354 22.3165 63.5861 67.6247 67.0407 66.0448C84.8964 57.8788 90.608 45.2006 89.5452 47.7668C83.6188 62.0749 68.3462 71.2455 68.8534 72.2386C73.6141 81.5604 100.105 45.0246 115.656 30.7746C118.027 28.6022 120.244 27.35 119.991 28.7863C115.392 54.9034 76.212 82.0714 76.9861 82.9038C85.2334 91.7713 100.456 63.2759 105.156 58.1641C106.252 56.9717 100.073 63.1369 97.8624 65.7768C95.6518 68.4167 95.1042 69.7096 99.6564 65.3772C114.473 51.2755 126.512 38.8168 123.309 43.6307C107.601 67.2323 87.4198 83.4235 94.8988 77.975C123.694 56.998 138.85 36.2587 138.342 37.0267C136.059 40.4787 128.138 49.7342 126.933 52.1379C120.077 65.8158 147.507 29.7408 148.329 28.9152C155.949 21.2576 122.124 57.5976 118.655 64.1421C111.167 78.2696 143.054 41.8199 144.937 41.3274C154.723 38.7687 134.919 52.2254 133.551 53.7013C127.533 60.193 147.865 41.8499 148.971 40.2062C157.035 28.2198 125.636 67.8558 119.328 76.6843C107.414 93.3585 163.972 37.0019 164.792 36.8287C185.952 32.3624 140.675 61.4039 136.614 65.6255C132.193 70.2208 145.365 58.6469 162.498 40.8517C178.589 24.1389 139.524 67.9239 136.774 71.8517C128.433 83.7651 160.036 51.0553 161.396 49.5795C163.072 47.7614 156.784 57.5273 151.889 62.908C145.21 70.2476 174.595 42.286 174.077 42.583C164.261 48.2192 159.964 59.5029 155.871 64.2395C155.191 65.0271 158.746 62.8534 159.061 62.6585C161.658 61.0544 151.804 68.3189 150.964 69.3161C146.404 74.7285 164.738 57.6294 167.74 54.0362C168.055 53.3458 165.915 54.9557 164.539 56.4315C163.162 57.9073 162.615 59.2001 162.051 60.5321" stroke="white" stroke-width="2" stroke-linecap="round"/>
<path d="M61.357 37.6819C57.0459 43.4819 46.2027 58.0697 43.5858 65.8309C41.8324 71.0308 70.4852 42.3629 85.0108 27.9032C99.5364 13.4435 107.06 4.7479 109.863 1.39517C113.423 -2.8639 82.4768 28.1227 59.6634 54.316C52.4201 62.6325 56.1493 61.52 61.003 58.1269C73.0912 49.6762 80.5107 41.3765 80.8133 40.3739C85.7311 24.0771 57.7995 63.7602 58.2828 65.2558C60.71 72.7663 73.9464 52.4464 77.1904 49.0368C82.7481 43.1953 57.6094 77.1586 57.5805 77.5012C57.1008 83.1881 82.8429 56.5192 99.9403 39.7391C104.349 35.412 79.7906 60.5222 70.2443 74.0332C67.1615 78.3962 69.8167 78.2088 71.4505 77.0795C73.0844 75.9501 74.1691 74.0153 77.3982 71.0905C80.6274 68.1656 85.9681 64.3093 83.5788 70.705C81.1894 77.1008 70.9081 93.8654 78.2624 86.3935C85.6167 78.9216 110.918 46.7051 119.662 34.4543C121.993 31.1885 106.139 45.9701 102.816 51.544C102.212 52.5578 112.372 43.5965 110.878 45.5786C109.384 47.5607 98.1192 59.1496 91.7759 65.9254C84.0273 74.2024 105.223 54.0861 127.51 33.9682C129.143 32.4938 105.77 61.8262 98.1513 72.6958C90.5326 83.5653 98.006 78.4251 105.609 72.0757C113.211 65.7263 120.717 58.3236 116.8 62.8814C112.883 67.4391 97.3157 84.1815 91.7024 90.8771C76.0134 109.591 143.551 39.6724 140.356 41.902C125.368 52.361 119.19 64.3508 117.009 67.9265C109.206 80.7173 162.995 24.0824 155.5 31.3039C128.494 57.325 110.957 81.2709 110.337 84.8875C108.942 93.021 143.704 54.8647 159.782 38.8149C161.831 36.7694 138.792 64.629 139.001 66.2802C141.924 89.3867 178.998 27.3818 169.839 36.7463C162.764 43.9803 153.124 57.0688 149.993 62.1C148.859 63.9216 163.589 52.2349 173.896 42.1308C176.965 39.122 160.979 58.9138 151.183 70.7929C148.182 74.4329 152.083 73.9897 154.788 73.0216C157.493 72.0535 159.625 70.7695 160.186 70.7523C160.747 70.7351 159.672 72.0235 158.564 73.3509" stroke="white" stroke-width="2" stroke-linecap="round"/>
<path d="M67.7848 34.7331C67.7664 36.0276 50.0305 55.3901 22.6293 84.6854C12.7734 95.2226 11.8689 97.2223 9.96615 99.6709C5.72615 105.127 29.4627 79.9676 60.9888 49.2529C80.5376 30.2071 27.909 95.6813 30.0217 95.3862C33.6431 94.8803 38.5662 89.2928 49.9179 78.5923C78.716 51.4462 97.1947 32.2578 99.0997 30.785C101.865 28.6467 90.7468 38.0657 78.8822 51.0099C69.9097 60.7987 54.1357 76.8448 47.9809 84.022C41.8262 91.1992 45.5621 88.9496 61.4268 74.9043C77.2915 60.859 105.172 35.0862 120.342 20.8419C135.512 6.59751 137.127 4.66259 121.838 21.0737C106.549 37.4849 74.3072 72.3007 60.364 88.7911C46.4208 105.281 51.7531 102.391 70.3426 84.464C88.9321 66.5369 120.617 33.6604 136.137 17.3679C151.657 1.07543 150.051 2.36317 148.416 3.99404C146.782 5.6249 145.167 7.55986 131.168 22.9026C117.169 38.2453 90.8345 66.9372 79.6745 79.948C68.5145 92.9588 73.3268 89.4192 87.3652 74.6994C101.403 59.9796 124.522 34.1868 136.97 20.2547C149.418 6.32249 150.494 5.03249 140.555 16.7834C130.615 28.5342 109.627 53.365 105.242 60.6821C100.857 67.9991 113.711 57.0499 129.735 41.4166C145.758 25.7833 164.561 5.79762 162.422 8.55904C139.385 38.2908 111.18 65.9536 119.73 58.8943C152.055 32.2057 171.809 10.3392 163.769 18.7C154.531 28.3074 135.312 48.9814 127.483 58.3238C119.654 67.6662 123.923 65.0951 131.496 57.968C166.052 25.447 171.697 18.1841 172.519 17.3588C175.032 14.8346 152.321 40.1385 131.637 63.2986C115.918 80.9 166.143 32.2334 162.154 35.8942C138.61 57.5046 125.991 76.4796 130.781 73.9303C150.977 63.1829 165.389 44.6947 171.672 37.4934C178.012 30.2269 155.711 54.3627 154.051 57.793C151.234 63.6144 169.719 44.6638 172.176 40.4327C174.374 36.6471 162.26 53.8998 151.223 70.6426C133.114 98.1151 198.377 22.8464 195.409 25.7661C191.504 29.6082 174.109 47.1143 152.113 72.3429C143.937 81.7209 142.475 84.355 146.742 80.205C161.989 65.38 173.357 51.5438 176.616 47.3161C179.471 43.6122 171.302 54.0065 155.537 72.8918C148.588 81.2158 172.544 55.718 195.77 28.5381C196.039 28.2235 170.05 57.463 160.774 69.349C156.413 74.937 186.051 48.5177 205.159 27.4056C205.329 27.2173 184.512 48.5211 178.021 55.6135C171.531 62.706 179.578 54.9729 182.644 52.4409C183.296 51.9028 171.121 66.7642 158.866 80.6335C146.388 94.7557 184.506 56.8077 186.132 55.829C186.156 55.8144 184.555 56.7785 183.192 57.9202C181.829 59.0619 180.752 60.3519 176.395 64.6093" stroke="white" stroke-width="4" stroke-linecap="round"/>
<path d="M194.325 51.0483C193.237 53.3146 187.859 57.8532 181.347 65.1572C175.959 71.2001 170.502 78.9618 166.083 87.6008C164.844 90.0231 163.358 92.9483 163.058 93.7986C162.836 94.4284 166.579 88.1657 173.92 74.8945C187.538 50.2764 199.894 34.1187 200.446 32.971C201.271 31.2573 191.266 46.6896 179.034 62.9451C174.607 68.8276 174.851 70.1904 181.014 63.7757C200.47 43.5286 213.843 27.6486 214.928 27.3155C232.774 21.8359 192.723 54.5751 187.006 61.5789C185.723 63.1511 199.069 50.4907 202.927 45.8723C216.496 29.6293 174.223 78.3412 172.836 80.8019C170.114 85.6309 193.583 57.0746 211.255 34.142C216.939 26.7657 214.436 27.6218 205.84 35.6755C181.443 58.5355 166.243 75.7138 168.361 74.7733C196.192 62.4123 195.455 43.5945 199.83 39.1643C203.193 35.7597 179.963 56.0876 162.366 74.9292C155.92 81.8302 154.947 83.4773 162.438 75.458C186.354 49.8555 204.761 28.2859 206.435 24.2064C207.377 21.9103 193.59 31.7432 178.517 45.809C169.065 54.6292 157.001 67.2769 149.032 76.317C141.063 85.3571 137.821 90.5116 150.357 78.2067C162.894 65.9019 191.306 35.9816 207.01 19.765C222.714 3.5485 224.849 1.94243 223.817 2.55964C222.784 3.17684 218.518 6.06598 204.807 18.8112C191.097 31.5565 168.07 54.0703 155.395 67.1184C142.721 80.1665 141.095 83.0668 141.594 83.4359C144.403 85.5147 159.86 65.3998 180.966 42.3445C189.483 33.0407 194.542 28.9478 195.958 27.2751C209.959 10.7352 149.746 71.1029 155.382 66.9079C186.006 44.1154 202.855 12.5974 201.817 13.058C190.175 18.22 170.64 38.7333 147.923 61.4638C137.103 72.2894 135.299 76.5627 135.806 76.9074C150.036 86.5794 155.785 59.3826 158.486 56.7903C159.778 55.5509 160.131 54.1936 157.472 56.1008C148.162 62.7778 139.106 73.2801 136.073 78.3474C132.897 83.6563 164.315 49.1703 179.116 28.4132C194.745 6.49289 133.791 70.0277 139.654 65.0702C163.83 44.6289 177.589 27.1734 177.342 26.5068C173.632 16.476 152.275 50.7739 138.443 64.1451C135.176 67.3037 132.749 71.2665 133.496 71.6513C148.14 79.1997 151.05 54.7916 149.726 56.7094C142.387 67.345 120.31 87.4625 102.93 109.569C96.7149 117.475 96.2943 118.801 97.3444 118.663C101.917 118.065 118.288 99.1801 141.584 72.8697C153.844 59.0236 156.412 53.5123 155.904 52.6831C150.599 44.0291 134.372 71.9389 125.118 80.7485C123.423 82.3618 121.884 83.6713 122.925 83.0492C127.983 80.0267 144.966 61.7646 166.368 37.5555C174.167 28.7334 176.485 27.1884 174.37 29.5776C157.102 49.0926 147.828 59.6331 142.692 64.6621C139.449 67.8382 154.102 56.2335 175.187 36.9025C184.065 28.7629 145.497 71.7115 146.003 72.7022C147.553 75.7361 165.879 54.0121 178.426 39.7938C192.892 23.402 143.325 75.9113 138.69 83.3895C136.004 87.7232 149.019 76.1113 175.731 50.9947C188.544 38.9466 197.668 27.4731 202.92 21.0252C209.126 13.4064 188.913 33.1917 157.506 66.6526C146.136 78.7666 145.375 81.4599 152.034 76.1974C174.564 58.3936 197.691 32.5825 203.221 25.1619C206.527 20.7256 180.839 49.6018 173.038 59.2446C165.236 68.8873 168.427 67.2857 175.429 60.992C194.153 44.1628 206.347 29.2714 209.075 25.3579C222.99 5.3946 159.815 77.6445 161.388 77.8322C189.146 81.1424 191.65 50.0876 195.716 44.8926C198.864 40.8705 191.778 48.9821 180.641 61.3564C178.513 63.7209 194.299 49.4723 196.262 46.4903C218.756 12.3117 152.108 95.2306 151.542 96.2169C156.303 93.9954 161.742 90.7294 164.707 88.1382C166.069 86.8324 167.144 85.5448 169.879 82.2675" stroke="white" stroke-width="3" stroke-linecap="round"/>
<path d="M210.586 51.2243C210.577 51.8707 201.371 67.3569 191.738 84.6777C177.92 109.525 220.169 48.7178 228.402 37.4296C235.867 27.1959 212.121 57.0978 209.711 57.5872C205.89 58.3633 213.783 48.3482 221.368 40.3875C228.691 32.7026 192.1 72.7149 196.686 68.9876C200.493 65.8935 204.541 60.6999 210.49 55.181C214.061 51.8683 203.058 62.4959 196.171 70.8954C175.784 95.7591 235.511 27.4785 230.666 30.8766C218.543 39.3776 207.918 54.0928 195.458 66.95C192.745 69.7492 191.106 71.6724 193.214 70.4177C212.112 59.1706 213.774 51.2475 212.729 52.0364C203.917 58.6933 187.956 71.287 177.901 82.2003C168.946 91.9208 202.42 57.7819 210.827 49.4818C223.201 37.2658 175.434 83.3801 173.253 86.9558C166.731 97.647 211.694 47.6538 210.929 46.818C200.613 35.5491 183.698 69.9566 180.048 76.5626C177.836 80.5666 198.087 59.4484 206.561 50.4238C223.424 32.464 176.44 86.9789 177.476 88.4623C188.949 104.886 213.801 49.2886 215.951 48.4749C237.333 40.3828 185.517 87.3403 187.621 87.5401C235.945 92.131 238.027 35.3543 237.773 36.3034C231.107 61.2377 204.358 76.9781 206.217 75.2277C227.25 55.4231 230.375 47.409 231.196 47.7063C234.526 48.9123 225.026 56.3782 226.839 53.8979C228.652 51.4176 237.275 39.8176 238.233 37.2211C244.82 19.3662 212.541 65.8757 209.234 72.5615C208.838 73.3619 217.269 65.6801 220.834 62.2081C223.329 59.7785 209.876 76.4527 208.115 79.2075C194.232 100.924 242.823 36.0308 243.387 35.2006C246.497 30.6268 222.351 58.6198 206.261 80.6151C205.282 81.9533 223.113 64.7839 230.259 55.5823C246.458 34.7261 196.614 95.5557 203.311 88.654C227.744 63.4762 242.721 43.2099 240.036 47.8658C236.504 53.9907 225.516 67.0174 223.492 68.5026C213.488 75.8459 237.343 45.1658 235.49 48.1797C221.567 70.8281 205.807 87.7585 210.366 81.979C228.185 59.391 242.215 41.5818 244.397 38.0061C247.909 32.2472 222.673 65.2914 222.099 67.9091C220.163 76.7406 236.796 46.4565 237.081 47.2364C244.928 68.6873 218.829 73.1209 218.004 74.2683C213.553 80.4577 230.73 58.5374 237.552 50.2111C244.112 42.2044 222.08 72.0963 218.486 77.5418C210.87 89.0848 238.824 51.4016 248.033 41.9784C252.61 37.2937 239.521 53.1284 222.354 75.9468C214.51 86.3721 233.97 58.218 236.968 54.1119C238.79 51.6155 232.334 63.9998 232.82 63.1056C236.059 57.1367 249.465 40.9462 255.301 33.7715C267.475 18.8066 218.667 82.2979 223.268 76.9497C229.087 70.1861 235.493 61.4958 236.338 62.4005C241.039 67.4383 221.569 83.2798 223.81 81.1001C245.69 59.8235 259.38 36.4234 259.933 35.2748C271.388 11.479 212.59 98.5612 219.827 90.8537C228.117 82.0256 243.744 62.5296 250.18 54.3436C253.672 49.9018 238.218 68.1677 222.155 89.9819C217.862 95.8111 230.913 77.2756 246.202 56.3936C251.054 49.7669 230.019 74.7938 231.88 72.8916C244.319 60.1784 251.184 48.466 254.946 46.3661C270.799 37.5176 220.696 91.7388 224.707 87.8965C241.302 71.9994 249.997 57.6094 245.441 63.2223C226.675 86.3371 216.278 100.575 220.342 95.2194C224.915 89.1946 236.307 77.5432 242.338 69.6738C243.236 68.501 232.217 82.4234 228.841 87.2723C222.673 96.1297 255.837 57.0169 263.947 49.8615C272.097 42.6716 241.185 80.3453 235.712 88.9859C231.451 95.7141 250.292 72.9591 253.04 69.5277C258.397 62.8375 241.616 84.9703 241.061 86.2805C237.012 95.8354 260.628 60.2888 263.108 56.5037C254.196 65.4237 248.218 71.2853 247.927 72.5965C248.183 72.6172 249.258 71.3288 250.366 70.0014" stroke="white" stroke-width="3" stroke-linecap="round"/>
<path d="M65.6914 29.2049C65.0168 31.4534 60.0213 41.9712 52.3207 56.9934C47.1054 67.1673 43.6039 71.527 38.0707 82.6676C36.5281 85.7734 34.8932 87.2349 35.0431 87.4347C37.1163 90.1967 47.4132 74.316 58.3749 60.6327C64.5351 52.9432 68.3855 49.3274 73.171 46.3151C75.4494 44.881 76.9838 43.2979 76.9992 42.8174C77.0139 42.3597 74.397 44.3879 66.1639 52.8106C57.9308 61.2333 43.4845 76.7355 35.382 85.7503C25.5407 96.6998 23.9408 99.6899 23.7567 100.732C23.5428 101.945 31.44 98.6194 41.302 92.0703C47.7377 87.7965 55.1112 80.6621 62.9463 72.2459C79.5082 54.4557 87.459 43.1639 89.769 41.3787C91.7024 39.8845 93.4111 38.2639 95.7178 36.763C97.7665 35.43 88.2221 43.4465 68.3915 63.1863C57.7643 73.7649 48.5217 86.3039 43.2706 93.0329C38.0194 99.762 37.6865 100.511 38.9849 99.966C40.2832 99.421 43.2229 97.5594 54.1081 85.3885C64.9934 73.2175 83.7351 50.7936 94.0427 38.8699C105.13 26.0448 107.66 24.5008 109.313 22.6184C111.116 20.5647 105.694 31.3775 92.5453 51.4729C83.5112 65.2797 76.6647 72.4584 72.3634 78.1943C60.7475 93.6845 54.7346 100.394 52.0547 104.836C51.2193 106.22 53.3025 106.107 57.4037 104.061C61.5049 102.015 68.0349 98.1074 78.6024 90.0322C89.1699 81.957 103.577 69.8325 113.134 61.1579C134.2 42.0383 137.31 36.6121 140.808 32.7261C143.541 29.6904 125.554 41.2151 109.083 54.7166C98.8292 63.1212 87.3365 75.6977 80.5888 82.7006C73.841 89.7035 72.8531 91.0121 71.8514 92.2467C70.8496 93.4813 69.8639 94.6023 77.9 85.371C85.9362 76.1398 103.024 56.5224 112.322 45.6684C125.264 30.5607 129.569 26.3248 131.577 24.3305C133.174 22.744 127.288 28.1841 122.35 32.8646C111.839 42.8291 104.406 53.4416 96.4645 64.2457C82.9742 82.5988 71.8166 94.8113 71.2946 96.6114C71.1345 97.1635 73.7101 96.7375 75.858 95.8045C80.7354 93.6857 92.4865 82.3266 108.217 66.6859C116.561 58.3887 122.049 51.1492 127.529 45.8543C128.385 45.028 125.465 48.0275 119.668 54.7993C113.871 61.5711 105.32 72.0366 100.418 78.2698C89.0275 92.7556 82.1817 104.157 83.1406 104.927C90.8739 111.135 105.201 90.6888 110.221 85.7442C113.189 82.8197 116.172 80.0879 119.835 75.9382C123.151 72.183 103.063 85.2867 95.9623 90.5619C93.0181 92.749 88.9022 96.5424 88.8311 97.1619C87.4707 109.022 113.582 77.9932 115.914 75.6252C122.697 68.7359 87.5943 92.407 80.9406 99.7744C79.5709 101.291 78.6179 102.233 79.0925 101.969C81.8944 100.405 85.8478 96.4357 91.959 89.677C109.207 70.6014 111.108 66.0381 115.063 63.0216C116.059 62.2623 116.721 61.5174 115.754 61.8764C114.787 62.2354 112.176 63.7234 104.28 70.1801C96.3844 76.6369 83.2829 88.0174 75.8766 94.6274C68.4702 101.237 67.1559 102.732 70.1378 95.5449C73.1197 88.3577 80.4377 72.4436 85.0323 63.0298C93.0041 46.6965 98.3098 37.7658 101.175 33.467C101.669 32.7249 88.5692 42.3223 71.8897 55.1175C63.3473 61.6706 53.1781 71.1495 38.4788 82.6327C33.0361 86.8846 31.3105 87.7739 38.6972 77.7858C46.0839 67.7978 62.5387 46.8635 72.9825 34.2125C86.6709 17.6312 92.0709 13.2349 92.2506 12.5676C92.6726 11.0009 80.6024 21.0638 68.2022 31.7029C56.9822 41.3294 51.6927 51.8464 47.7027 56.583C46.7021 57.7181 45.7142 59.0267 44.5492 60.3543C43.3843 61.6819 42.0721 62.9889 43.6743 63.7819" stroke="white" stroke-width="4" stroke-linecap="round"/>
<path d="M220.062 34.8667C219.4 36.3659 213.795 46.5024 203.693 63.3093C191.996 82.7708 184.011 87.0109 179.063 91.3681C177.768 92.5083 176.118 93.994 175.774 93.7332C175.43 93.4725 176.421 91.4115 184.603 81.8431C192.784 72.2747 208.127 55.2613 216.363 45.6533C227.935 32.1538 229.558 29.4229 229.902 28.3774C229.971 28.1694 228.294 29.0123 213.153 40.779C198.013 52.5458 169.07 75.312 158.25 81.6142C152.432 85.0033 170.553 60.2823 181.389 51.2369C187.131 46.4439 192.265 43.848 195.555 41.3975C196.477 40.7106 194.957 40.8053 193.478 41.5519C192 42.2984 190.374 43.6049 178.489 52.1099C166.604 60.615 144.51 76.279 132.639 84.8154C120.769 93.3518 119.791 94.2859 118.312 95.5134C116.833 96.741 114.883 98.2336 117.792 94.8904C120.702 91.5472 128.531 83.3231 138.469 70.1011C148.407 56.8791 160.216 38.9085 167.444 28.2481C176.627 14.7034 180.297 10.7694 182.269 8.69637C183.195 7.72278 184.237 6.99897 177.509 18.786C170.781 30.5731 156.32 54.9162 147.727 68.7654C137.431 85.3599 130.911 91.1044 124.995 96.4754C121.436 99.7064 119.371 101.882 118.21 103.017C118.019 103.205 119.967 102.665 132.508 93.1416C145.05 83.6183 168.465 65.1437 181.018 55.0655C193.57 44.9873 194.55 43.8654 193.918 44.0329C193.286 44.2004 191.013 45.6913 181.046 54.7725C171.078 63.8537 153.484 80.4799 143.929 89.6998C129.878 103.259 125.795 108.739 124.293 111.116C123.977 111.616 127.682 109.364 138.813 97.6589C149.944 85.9542 169.532 64.0791 180.274 52.25C194.571 36.5057 199.895 33.4429 201.043 32.1226C201.62 31.4595 203.154 31.1829 203.489 31.7424C203.824 32.3019 203.162 33.8011 196.274 43.3676C189.386 52.9341 176.293 70.5225 168.732 80.4243C157.621 94.9759 154.888 98.2678 154.378 99.3153C154.245 99.5881 156.796 97.936 168.08 86.141C179.363 74.346 199.923 52.1002 211.164 40.1741C222.405 28.2479 223.704 27.3155 219.617 34.1359C215.529 40.9563 206.015 55.5578 200.133 64.2017C189.375 80.0136 183.36 85.892 181.847 88.7301C181.434 89.5061 180.38 90.2366 180.848 90.2503C183.562 90.3302 192.087 83.5349 205.854 72.3502C213.057 66.4975 219.635 59.8508 225.924 54.3365C237.306 44.3569 245.059 39.1781 247.024 38.5166C247.522 38.3491 246.384 40.2834 239.826 48.7246C233.269 57.1659 221.168 72.5055 214.446 80.7808C207.05 89.8876 204.116 92.0657 204.575 92.0908C206.662 90.6217 212.514 86.1439 215.694 83.4623C218.875 80.7808 219.206 80.0312 219.547 79.2588" stroke="white" stroke-width="3" stroke-linecap="round"/>
<path d="M104.451 21.691C96.0553 36.2636 87.6761 48.5501 78.2663 58.3895C66.6773 70.5075 56.5148 79.6256 52.5859 83.2807C51.6566 84.1453 51.181 85.1014 50.2009 86.1315C49.2208 87.1617 47.8327 88.2911 55.3075 76.9013C62.7824 65.5115 79.1622 41.5684 88.1556 28.8952C97.7911 15.3171 99.9589 13.9427 100.384 13.2513C101.347 11.6839 97.1742 16.8928 90.0738 23.9053C83.9336 29.9695 74.3669 42.2118 68.1077 49.9601C56.1025 64.8216 53.9825 68.2221 52.3041 70.6143C50.9685 72.518 58.6516 63.3144 72.6675 47.8074C79.188 40.5932 84.496 34.2855 90.1158 28.1183C93.0856 24.8593 79.8185 36.2568 71.4056 45.1414C52.2042 65.4192 47.8158 70.9463 44.173 74.4988C40.5078 78.0731 36.8791 81.0082 35.4741 81.2409C30.6941 82.0327 49.1282 66.949 56.1993 57.7666C63.1961 48.6807 72.1796 43.3754 75.4143 40.1857C77.488 38.1409 80.0456 36.3047 80.7523 34.8194C81.2007 33.8768 66.1559 45.0935 46.2594 61.391C30.7707 74.078 27.6417 79.6119 23.7003 83.8522C22.9157 84.6963 22.0219 85.3341 21.0376 85.9091C20.0533 86.4841 18.9428 86.9358 19.62 85.8133C24.5543 77.6345 30.3843 73.739 34.7506 68.3693C38.642 63.5835 42.1792 59.5839 46.108 55.3607C49.3794 51.8441 53.3852 47.496 58.0249 43.721C61.5372 40.8633 64.894 37.6805 68.1245 34.0254C68.9013 33.1465 69.3865 32.2046 68.2844 32.5298C58.5704 35.3955 54.2769 41.9791 50.4827 45.8601C45.8783 50.5699 43.0541 54.5324 38.8477 59.5463C35.4855 63.5538 31.8313 66.6204 28.8868 69.7074C28.1801 70.5083 27.6249 71.4118 26.7836 72.329C25.9423 73.2462 24.8318 74.1497 22.8464 77.134" stroke="white" stroke-width="3" stroke-linecap="round"/>
<path d="M92.8828 107.765C95.1207 104.583 98.469 100.482 103.937 95.123C110.413 88.7765 120.056 82.4669 124.553 78.1205C130.318 72.5484 135.216 70.5843 136.205 69.7801C140.542 66.2512 126.551 76.7173 121.79 81.3889C113.705 89.32 110.298 94.9519 104.821 100.106C103.646 101.212 102.44 102.043 101.313 102.734C93.9762 107.233 128.2 80.1808 135.339 72.2031C137.056 70.2832 138.565 69.229 138.308 69.099C132.455 66.1323 127.123 77.4018 108.379 95.147C104.429 98.8867 103.281 99.5379 101.599 100.791C99.916 102.043 97.695 103.85 99.3271 100.602C115.009 76.9979 122.311 68.9895 125.529 66.4877C127.081 65.1153 128.469 63.5342 132.423 60.5361" stroke="white" stroke-width="4" stroke-linecap="round"/>
</svg>
